<svg fill="none" height="495" viewBox="0 0 945 495" width="945" xmlns="http://www.w3.org/2000/svg" xmlns:xlink="http://www.w3.org/1999/xlink"><linearGradient id="paint0_linear_588_37966" gradientUnits="userSpaceOnUse" x1="473" x2="473" y1="0" y2="495.073"><stop offset="0" stop-color="#bdd4ff"/><stop offset="1" stop-color="#77a7ff"/></linearGradient><linearGradient id="paint1_linear_588_37966" gradientUnits="userSpaceOnUse" x1="416.626" x2="417.517" y1="477.953" y2="473.507"><stop offset="0" stop-color="#bdd4ff"/><stop offset="1" stop-color="#e7efff"/></linearGradient><linearGradient id="lg1"><stop offset="0" stop-color="#ffffff"/><stop offset="1" stop-color="#ffffff" stop-opacity="0"/></linearGradient><radialGradient id="paint2_radial_588_37966" cx="648.853" cy="315.02" gradientUnits="userSpaceOnUse" r="201.687" xlink:href="#lg1"/><radialGradient id="paint3_radial_588_37966" cx="287.497" cy="-24.1447" gradientUnits="userSpaceOnUse" r="156.334" xlink:href="#lg1"/><radialGradient id="paint4_radial_588_37966" cx="0" cy="0" gradientTransform="matrix(298.506 0 0 39.6871 483.954 444.111)" gradientUnits="userSpaceOnUse" r="1"><stop offset="0" stop-color="#4873c4" stop-opacity=".9"/><stop offset=".84" stop-color="#233b67" stop-opacity="0"/></radialGradient><linearGradient id="lg2"><stop offset="0" stop-color="#4873c4" stop-opacity=".9"/><stop offset=".13" stop-color="#4771c2" stop-opacity=".88"/><stop offset=".26" stop-color="#446ebc" stop-opacity=".82"/><stop offset=".38" stop-color="#4068b2" stop-opacity=".73"/><stop offset=".51" stop-color="#3b5fa3" stop-opacity=".59"/><stop offset=".62" stop-color="#345491" stop-opacity=".41"/><stop offset=".74" stop-color="#2b477b" stop-opacity=".2"/><stop offset=".84" stop-color="#233b67" stop-opacity="0"/></linearGradient><radialGradient id="paint5_radial_588_37966" cx="0" cy="0" gradientTransform="matrix(132.628 0 0 20.8044 454.206 -499.612)" gradientUnits="userSpaceOnUse" r="1" xlink:href="#lg2"/><radialGradient id="paint6_radial_588_37966" cx="0" cy="0" gradientTransform="matrix(132.628 0 0 20.8044 465.451 438.656)" gradientUnits="userSpaceOnUse" r="1" xlink:href="#lg2"/><linearGradient id="paint7_linear_588_37966" gradientUnits="userSpaceOnUse" x1="267.253" x2="262.5" y1="435.948" y2="-39.5"><stop offset="0" stop-color="#ffe4e8"/><stop offset="1" stop-color="#f64f64"/></linearGradient><linearGradient id="lg3"><stop offset="0" stop-color="#575378"/><stop offset="1" stop-color="#233b67"/></linearGradient><linearGradient id="paint8_linear_588_37966" gradientUnits="userSpaceOnUse" x1="489.511" x2="376.755" xlink:href="#lg3" y1="342.334" y2="289.958"/><linearGradient id="paint9_linear_588_37966" gradientUnits="userSpaceOnUse" x1="444.386" x2="428.549" y1="324.479" y2="321.964"><stop offset="0" stop-color="#0e1b33"/><stop offset="1" stop-color="#233b67"/></linearGradient><linearGradient id="paint10_linear_588_37966" gradientUnits="userSpaceOnUse" x1="556.577" x2="525.943" xlink:href="#lg3" y1="314.239" y2="583.258"/><linearGradient id="lg4"><stop offset="0" stop-color="#233b67"/><stop offset="1" stop-color="#575378" stop-opacity="0"/></linearGradient><linearGradient id="paint11_linear_588_37966" gradientUnits="userSpaceOnUse" x1="476.806" x2="526.084" xlink:href="#lg4" y1="387.388" y2="351.433"/><radialGradient id="paint12_radial_588_37966" cx="0" cy="0" gradientTransform="matrix(-199.117 0 0 -199.117 571.303 437.519)" gradientUnits="userSpaceOnUse" r="1" xlink:href="#lg4"/><linearGradient id="lg5"><stop offset=".09" stop-color="#bdd4ff"/><stop offset=".3" stop-color="#b1ccff"/><stop offset=".68" stop-color="#92b8ff"/><stop offset=".96" stop-color="#77a7ff"/></linearGradient><linearGradient id="paint13_linear_588_37966" gradientUnits="userSpaceOnUse" x1="527.199" x2="514.326" xlink:href="#lg5" y1="479.569" y2="357.046"/><linearGradient id="paint14_linear_588_37966" gradientUnits="userSpaceOnUse" x1="519.999" x2="519.117" xlink:href="#lg5" y1="481.344" y2="422.748"/><linearGradient id="paint15_linear_588_37966" gradientUnits="userSpaceOnUse" x1="443.187" x2="392.143" xlink:href="#lg5" y1="342.824" y2="466.679"/><linearGradient id="paint16_linear_588_37966" gradientUnits="userSpaceOnUse" x1="518.935" x2="526.337" xlink:href="#lg3" y1="369.123" y2="400.79"/><linearGradient id="lg6"><stop offset="0" stop-color="#233b67"/><stop offset="1" stop-color="#0e1b33"/></linearGradient><linearGradient id="paint17_linear_588_37966" gradientUnits="userSpaceOnUse" x1="649.214" x2="451.997" xlink:href="#lg6" y1="326.009" y2="326.009"/><linearGradient id="paint18_linear_588_37966" gradientUnits="userSpaceOnUse" x1="507.585" x2="579.505" xlink:href="#lg6" y1="136.355" y2="306.162"/><linearGradient id="paint19_linear_588_37966" gradientUnits="userSpaceOnUse" x1="516.804" x2="520.072" xlink:href="#lg6" y1="190.158" y2="214.782"/><linearGradient id="paint20_linear_588_37966" gradientUnits="userSpaceOnUse" x1="510.09" x2="513.089" xlink:href="#lg3" y1="150.883" y2="130.277"/><linearGradient id="paint21_linear_588_37966" gradientUnits="userSpaceOnUse" x1="502.319" x2="549.942" xlink:href="#lg6" y1="196.093" y2="124.666"/><linearGradient id="paint22_linear_588_37966" gradientUnits="userSpaceOnUse" x1="494.017" x2="565.929" xlink:href="#lg6" y1="142.1" y2="311.899"/><linearGradient id="lg7"><stop offset="0" stop-color="#f5cfbe"/><stop offset="1" stop-color="#fce6e0"/></linearGradient><linearGradient id="paint23_linear_588_37966" gradientUnits="userSpaceOnUse" x1="522.288" x2="528.65" xlink:href="#lg7" y1="200.065" y2="235.961"/><linearGradient id="paint24_linear_588_37966" gradientUnits="userSpaceOnUse" x1="510.752" x2="503.17" xlink:href="#lg7" y1="143.214" y2="188.611"/><linearGradient id="paint25_linear_588_37966" gradientUnits="userSpaceOnUse" x1="462.881" x2="509.453" xlink:href="#lg6" y1="167.738" y2="97.8901"/><linearGradient id="paint26_linear_588_37966" gradientUnits="userSpaceOnUse" x1="489.242" x2="488.287" xlink:href="#lg6" y1="196.872" y2="190.12"/><linearGradient id="paint27_linear_588_37966" gradientUnits="userSpaceOnUse" x1="503.781" x2="497.79" xlink:href="#lg6" y1="185.669" y2="163.627"/><linearGradient id="paint28_linear_588_37966" gradientUnits="userSpaceOnUse" x1="474.612" x2="468.612" xlink:href="#lg6" y1="193.607" y2="171.565"/><linearGradient id="paint29_linear_588_37966" gradientUnits="userSpaceOnUse" x1="542.38" x2="463.109" xlink:href="#lg6" y1="207.176" y2="175.346"/><linearGradient id="paint30_linear_588_37966" gradientUnits="userSpaceOnUse" x1="560.156" x2="493.432" xlink:href="#lg6" y1="197.258" y2="171.329"/><linearGradient id="lg8"><stop offset="0" stop-color="#fcebd6"/><stop offset="1" stop-color="#fce1c6" stop-opacity="0"/></linearGradient><radialGradient id="paint31_radial_588_37966" cx="0" cy="0" gradientTransform="matrix(231.64062109 -211.1465561 156.24884223 171.41448825 513.155 541.233)" gradientUnits="userSpaceOnUse" r="1" xlink:href="#lg8"/><radialGradient id="paint32_radial_588_37966" cx="134.45" cy="233.609" gradientUnits="userSpaceOnUse" r="259.165" xlink:href="#lg8"/><linearGradient id="paint33_linear_588_37966" gradientUnits="userSpaceOnUse" x1="320.209" x2="309.85" xlink:href="#lg5" y1="341.966" y2="377.48"/><linearGradient id="lg9"><stop offset="0" stop-color="#ffe8e1"/><stop offset="1" stop-color="#f6cfbe"/></linearGradient><linearGradient id="paint34_linear_588_37966" gradientUnits="userSpaceOnUse" x1="484.286" x2="515.516" xlink:href="#lg9" y1="391.81" y2="395.048"/><linearGradient id="paint35_linear_588_37966" gradientUnits="userSpaceOnUse" x1="459.578" x2="539.142" xlink:href="#lg9" y1="415.095" y2="403.337"/><linearGradient id="paint36_linear_588_37966" gradientUnits="userSpaceOnUse" x1="601.5" x2="600.325" y1="313.323" y2="447.269"><stop offset="0" stop-color="#233b67"/><stop offset=".42" stop-color="#223964"/><stop offset=".63" stop-color="#1f345d"/><stop offset=".75" stop-color="#1c3055"/><stop offset=".84" stop-color="#182a4b"/><stop offset="1" stop-color="#0e1b33"/></linearGradient><linearGradient id="paint37_linear_588_37966" gradientUnits="userSpaceOnUse" x1="439.931" x2="371.118" xlink:href="#lg5" y1="380.784" y2="379.01"/><linearGradient id="paint38_linear_588_37966" gradientUnits="userSpaceOnUse" x1="360.706" x2="371.356" xlink:href="#lg5" y1="314.027" y2="599.026"/><linearGradient id="lg10"><stop offset="0" stop-color="#f6cfbe"/><stop offset="1" stop-color="#ffe8e1" stop-opacity="0"/></linearGradient><radialGradient id="paint39_radial_588_37966" cx="0" cy="0" gradientTransform="matrix(16.87739264 -4.7186039 1.88744694 6.75097632 481.767 414.652)" gradientUnits="userSpaceOnUse" r="1" xlink:href="#lg10"/><radialGradient id="paint40_radial_588_37966" cx="0" cy="0" gradientTransform="matrix(16.16375878 -4.51908519 1.80763677 6.46551314 476.988 410.609)" gradientUnits="userSpaceOnUse" r="1" xlink:href="#lg10"/><clipPath id="clip0_588_37966"><path d="M0 0H945V495H0Z"/></clipPath><clipPath id="clip1_588_37966"><path d="M0 0H946V495.073H0Z"/></clipPath><g clip-path="url(#clip0_588_37966)"><g clip-path="url(#clip1_588_37966)"><path d="M946 0H0V495.073H946V0Z" fill="url(#paint0_linear_588_37966)"/><path d="M464.202 447.76C578.904 447.76 671.888 354.775 671.888 240.073 671.888 125.371 578.904 32.3867 464.202 32.3867 349.5 32.3867 256.516 125.371 256.516 240.073 256.516 354.775 349.5 447.76 464.202 447.76Z" fill="url(#paint1_linear_588_37966)"/><path d="M464.202 447.76C578.904 447.76 671.888 354.775 671.888 240.073 671.888 125.371 578.904 32.3867 464.202 32.3867 349.5 32.3867 256.516 125.371 256.516 240.073 256.516 354.775 349.5 447.76 464.202 447.76Z" fill="url(#paint2_radial_588_37966)"/><path d="M464.202 447.76C578.904 447.76 671.888 354.775 671.888 240.073 671.888 125.371 578.904 32.3867 464.202 32.3867 349.5 32.3867 256.516 125.371 256.516 240.073 256.516 354.775 349.5 447.76 464.202 447.76Z" fill="url(#paint3_radial_588_37966)"/><path d="M491.89 499.458C657.514 499.458 791.78 478.313 791.78 452.229 791.78 426.145 657.514 405 491.89 405 326.265 405 192 426.145 192 452.229 192 478.313 326.265 499.458 491.89 499.458Z" fill="url(#paint4_radial_588_37966)" opacity=".37"/><path d="M462.127 468.705C535.716 468.705 595.371 459.31 595.371 447.72 595.371 436.13 535.716 426.734 462.127 426.734 388.538 426.734 328.883 436.13 328.883 447.72 328.883 459.31 388.538 468.705 462.127 468.705Z" fill="url(#paint5_radial_588_37966)" opacity=".37"/><path d="M473.018 467.674C546.606 467.674 606.262 458.278 606.262 446.689 606.262 435.099 546.606 425.703 473.018 425.703 399.429 425.703 339.773 435.099 339.773 446.689 339.773 458.278 399.429 467.674 473.018 467.674Z" fill="url(#paint6_radial_588_37966)" opacity=".37"/><path d="M464.031 436.272C572.524 436.272 660.475 348.321 660.475 239.828 660.475 131.334 572.524 43.3828 464.031 43.3828 355.537 43.3828 267.586 131.334 267.586 239.828 267.586 348.321 355.537 436.272 464.031 436.272Z" fill="url(#paint7_linear_588_37966)"/><path d="M485.049 227.293C485.049 227.293 457.938 241.751 442.368 280.703 426.799 319.654 423.984 424.865 423.984 424.865L564.063 403.556 485.049 227.293Z" fill="url(#paint8_linear_588_37966)"/><path d="M485.049 227.293C485.049 227.293 457.938 241.751 442.368 280.703 426.799 319.654 423.984 424.865 423.984 424.865L564.063 403.556 485.049 227.293Z" fill="url(#paint9_linear_588_37966)"/><path d="M636.435 250.376C636.435 250.376 625.43 217.108 564.074 219.773 502.718 222.438 467.496 225.804 458.469 271.101 449.443 316.399 452.486 415.351 452.486 415.351L495.836 432.387 649.206 411.243 636.427 250.376H636.435Z" fill="url(#paint10_linear_588_37966)"/><path d="M636.435 250.376C636.435 250.376 625.43 217.108 564.074 219.773 502.718 222.438 467.496 225.804 458.469 271.101 449.443 316.399 452.486 415.351 452.486 415.351L495.836 432.387 649.206 411.243 636.427 250.376H636.435Z" fill="url(#paint11_linear_588_37966)"/><path d="M636.435 250.376C636.435 250.376 625.43 217.108 564.074 219.773 502.718 222.438 467.496 225.804 458.469 271.101 449.443 316.399 452.486 415.351 452.486 415.351L495.836 432.387 649.206 411.243 636.427 250.376H636.435Z" fill="url(#paint12_radial_588_37966)"/><path d="M471.566 447.72 575.012 436.96 573.845 428.848 471.322 439.916 471.354 439.963 471.125 439.932 471.566 447.72Z" fill="url(#paint13_linear_588_37966)"/><path d="M471.28 439.839 471.328 439.918 573.851 428.849 573.858 428.589 464.406 419.09 474.915 434.108 471.28 439.839Z" fill="url(#paint14_linear_588_37966)"/><path d="M462.998 439.261 336.258 428.492 338.867 436.439 471.575 447.72 471.134 439.931 462.998 439.261Z" fill="url(#paint15_linear_588_37966)"/><path d="M523.578 408.76C523.578 419.971 525.644 429.06 528.198 429.06 528.292 429.06 528.387 429.044 528.474 429.021 530.902 428.398 532.817 419.561 532.817 408.76 532.817 397.96 530.902 389.131 528.474 388.508 528.387 388.485 528.292 388.469 528.198 388.469 525.644 388.469 523.578 397.558 523.578 408.76Z" fill="url(#paint16_linear_588_37966)"/><path d="M636.435 250.376C636.435 250.376 625.43 217.108 564.074 219.773 502.718 222.438 467.496 225.804 458.469 271.101 449.443 316.399 452.486 415.351 452.486 415.351L495.836 432.387 649.206 411.243 636.427 250.376H636.435Z" fill="url(#paint17_linear_588_37966)"/><path d="M466.947 212.871C470.195 220.218 473.577 226.383 476.005 231.27 485.961 251.184 505.867 256.663 530.928 253.241 555.965 249.804 599.206 238.468 599.206 203.797 599.206 169.126 577.96 144.546 571.07 116.994 566.49 98.6964 561.949 92.2242 547.664 87.4942 540.853 85.2317 532.103 84.0255 521.019 84.5852 486.703 86.2959 476.667 103.947 471.291 113.825 448.177 156.371 456.974 190.253 466.947 212.879V212.871Z" fill="url(#paint18_linear_588_37966)"/><path d="M506.377 248.368C506.377 248.368 531.036 256.953 538.817 244.631 546.606 232.309 566.598 231.143 569.861 219.798 573.125 208.454 555.269 149.826 532.629 133.05 509.988 116.274 480.465 128.375 478.604 148.123 476.744 167.879 473.732 195.155 471.722 213.003 469.712 230.859 471.06 234.753 491.793 241.083 512.526 247.406 506.377 248.368 506.377 248.368Z" fill="url(#paint19_linear_588_37966)"/><path d="M527.687 138.735C527.687 138.735 530.422 143.418 537.281 143.978L544.139 144.538 537.825 125.925 502.161 106.012 479.93 131.049 527.687 138.728V138.735Z" fill="url(#paint20_linear_588_37966)"/><path d="M542.073 209.314C542.073 209.314 545.621 182.873 550.808 177.686 555.995 172.499 556.421 155.25 553.859 144.513 551.304 133.768 532.936 121.51 522.404 118.837 511.872 116.165 498.297 129.724 498.297 129.724L510.272 172.231 542.073 209.314V209.314Z" fill="url(#paint21_linear_588_37966)"/><path d="M460.947 233.838C471.258 244.457 497.376 250.661 513.694 250.37 505.811 244.181 503.548 243.188 493.056 239.987 472.33 233.665 470.281 227.973 472.291 210.125 474.301 192.277 476.753 167.878 478.606 148.115 480.474 128.367 509.997 116.266 532.63 133.042 555.279 149.825 573.135 208.454 569.863 219.79 566.591 231.126 546.599 232.309 538.811 244.623 537.597 246.538 536.674 248.083 535.957 249.305 555.515 244.394 591.164 233.192 590.178 217.094 588.83 194.934 581.94 194.721 570.241 152.577 558.543 110.432 541.097 83.771 505.22 99.7506 437.991 129.691 460.285 141.375 459.252 165.624 458.235 189.881 445.078 217.528 460.931 233.838H460.947Z" fill="url(#paint22_linear_588_37966)"/><path d="M544.676 223.15 538.196 188.668 508.578 212.649 509.966 233.682C509.966 233.682 514.459 242.708 521.672 242.275 527.285 241.944 533.97 232.468 544.676 223.15V223.15Z" fill="url(#paint23_linear_588_37966)"/><path d="M519.514 139.293C519.514 139.293 522.36 159.593 530.196 166.948L532.474 166.593C532.474 166.593 535.273 157.362 544.551 160.594 547.689 161.69 549.604 168.241 549.604 168.241V168.264L550.495 173.246C551.433 178.552 550.377 184.094 547.192 188.438 546.089 189.943 544.89 191.086 543.747 191.268 541.398 192.324 537.732 190.755 537.18 190.645L536.991 197.133C536.897 200.334 535.478 203.353 533.073 205.458 529.36 208.714 525.75 211.796 521.469 215.32 510.621 224.244 497.409 230.109 491.567 225.907 473.199 212.695 465.954 163.645 464.07 147.902 468.446 149.029 473.215 148.919 477.693 147.996L519.522 139.293H519.514Z" fill="url(#paint24_linear_588_37966)"/><path d="M500.595 118.065C500.595 118.065 491.348 113.138 480.437 119.547 469.527 125.949 455.494 125.767 451.277 120.454L447.059 115.141C447.059 115.141 443.118 146.501 467.256 147.896 491.395 149.283 527.69 138.743 527.69 138.743 527.69 138.743 543.685 139.603 526.05 131.089 508.407 122.575 501.935 118.491 500.595 118.073V118.065Z" fill="url(#paint25_linear_588_37966)"/><g clip-rule="evenodd" fill-rule="evenodd"><path d="M479.957 168.383C479.736 168.099 479.523 167.791 479.279 167.515 478.183 166.278 476.898 165.489 475.542 164.922 472.838 163.779 469.566 164.07 466.61 164.764 464.955 165.15 463.378 165.828 461.896 166.664 458.072 168.816 458.388 168.122 457.418 168.651 457.111 168.816 456.811 169.045 456.551 169.305 456.433 169.423 456.377 169.597 456.393 169.762 456.512 170.748 456.653 171.725 456.827 172.703 456.882 173.034 457.087 173.223 457.387 173.223 457.592 173.223 457.797 173.27 458.001 173.302 458.388 173.357 458.679 173.641 458.782 174.122 459.665 178.355 459.689 180.893 461.328 185.048 462.054 186.877 463.031 188.477 464.277 189.809L464.324 189.857C467.422 193.136 472.499 193.751 476.188 191.15 476.693 190.795 477.166 190.401 477.576 189.967 480.808 186.632 481.99 180.767 481.73 175.454 481.667 174.114 481.51 172.781 481.383 171.441 481.328 170.858 482.022 169.581 484.016 169.305 485.751 169.131 487.028 170.109 487.13 170.684 487.359 172.009 487.556 173.341 487.84 174.65 488.975 179.845 491.64 185.198 495.637 187.578 498.214 189.116 501.959 189.502 504.623 188.722 507.225 187.965 509.448 186.475 510.97 183.637 511.829 182.029 512.357 180.231 512.578 178.276 513.082 173.83 512.436 171.378 512.192 167.058 512.16 166.569 512.373 166.215 512.728 166.065 512.917 165.986 513.106 165.876 513.303 165.828 513.587 165.757 513.737 165.521 513.705 165.182 513.611 164.197 513.5 163.211 513.358 162.234 513.335 162.068 513.24 161.91 513.09 161.832 512.767 161.65 512.42 161.508 512.081 161.429 510.859 161.138 509.629 160.846 508.408 160.602 506.295 160.176 504.182 159.711 502.054 159.616 498.364 159.443 494.162 160.476 491.088 162.888 489.929 163.794 488.896 164.89 488.163 166.364 487.998 166.688 487.871 167.042 487.737 167.373 487.414 167.421 486.066 166.333 483.701 166.664 480.942 167.05 480.311 168.367 479.988 168.398L479.957 168.383Z" fill="url(#paint26_linear_588_37966)"/><path d="M508.378 183.473C507.321 184.986 506.029 186.035 504.499 186.587 502.859 187.162 501.157 187.288 499.407 186.973 499.328 186.965 499.265 186.949 499.186 186.926 497.522 186.587 495.993 185.664 494.606 184.237 492.989 182.574 491.673 179.862 490.814 177.04 490.27 175.306 489.915 173.548 489.749 171.971 489.529 169.7 489.986 167.761 491.074 166.161 492.036 164.765 493.218 163.788 494.527 163.11 494.637 163.055 494.747 162.992 494.858 162.944 497.869 161.486 501.874 161.163 505.059 162.511 505.989 162.921 506.762 163.441 507.392 164.08 508.015 164.679 508.496 165.388 508.882 166.177 511.105 170.725 510.932 179.783 508.378 183.473V183.473Z" fill="url(#paint27_linear_588_37966)"/><path d="M479.07 173.491C479.716 177.362 479.393 182.77 477.714 185.86 476.776 187.579 475.569 188.824 474.08 189.526 472.684 190.188 471.234 190.496 469.728 190.433 469.618 190.433 469.507 190.417 469.405 190.417 467.915 190.291 466.488 189.652 465.163 188.533 463.5 187.098 462.05 184.173 461.174 181.02 460.378 178.15 460.071 175.115 460.497 172.876 460.804 171.221 461.569 169.786 463.027 168.604 463.658 168.107 464.359 167.681 465.108 167.35 467.458 166.286 470.24 166.042 472.613 166.57 473.969 166.877 475.262 167.476 476.46 168.525 476.768 168.785 477.044 169.077 477.296 169.384 478.203 170.464 478.794 171.828 479.07 173.491Z" fill="url(#paint28_linear_588_37966)"/><path d="M477.301 169.384 469.733 190.433C469.623 190.433 469.512 190.417 469.41 190.417 467.92 190.291 466.493 189.652 465.169 188.533 463.505 187.098 462.055 184.173 461.18 181.02L465.113 167.35C467.463 166.286 470.246 166.042 472.618 166.57 473.974 166.877 475.267 167.476 476.465 168.525 476.773 168.785 477.049 169.077 477.301 169.384V169.384Z" fill="url(#paint29_linear_588_37966)" opacity=".46"/><path d="M507.391 164.08 499.185 186.926C497.521 186.587 495.992 185.664 494.604 184.237 492.988 182.574 491.672 179.862 490.812 177.04L494.857 162.944C497.868 161.486 501.873 161.163 505.058 162.511 505.988 162.921 506.76 163.441 507.391 164.08V164.08Z" fill="url(#paint30_linear_588_37966)" opacity=".46"/></g><path d="M255.376 325.196 248.305 104.312 697.82 167.616 475.092 434.419 255.376 325.196Z" fill="url(#paint31_radial_588_37966)" opacity=".5"/><path d="M256.516 319.167 356.571 76.7148 624.376 263.345 476.232 428.39 256.516 319.167Z" fill="url(#paint32_radial_588_37966)" opacity=".5"/><g fill="#ffffff" opacity=".6"><path d="M220.353 285.104C221.881 285.104 223.12 283.866 223.12 282.337 223.12 280.809 221.881 279.57 220.353 279.57 218.825 279.57 217.586 280.809 217.586 282.337 217.586 283.866 218.825 285.104 220.353 285.104Z" opacity=".1"/><path d="M420.392 324.546C421.92 324.546 423.159 323.307 423.159 321.779 423.159 320.251 421.92 319.012 420.392 319.012 418.864 319.012 417.625 320.251 417.625 321.779 417.625 323.307 418.864 324.546 420.392 324.546Z"/><path d="M481.408 300.343C482.936 300.343 484.175 299.104 484.175 297.576 484.175 296.047 482.936 294.809 481.408 294.809 479.879 294.809 478.641 296.047 478.641 297.576 478.641 299.104 479.879 300.343 481.408 300.343Z" opacity=".2"/><path d="M574.228 399.343C575.756 399.343 576.995 398.104 576.995 396.576 576.995 395.047 575.756 393.809 574.228 393.809 572.7 393.809 571.461 395.047 571.461 396.576 571.461 398.104 572.7 399.343 574.228 399.343Z" opacity=".2"/><path d="M462.876 394.874C464.405 394.874 465.643 393.635 465.643 392.107 465.643 390.579 464.405 389.34 462.876 389.34 461.348 389.34 460.109 390.579 460.109 392.107 460.109 393.635 461.348 394.874 462.876 394.874Z" opacity=".2"/><path d="M197.119 311.64C198.647 311.64 199.886 310.401 199.886 308.873 199.886 307.344 198.647 306.105 197.119 306.105 195.59 306.105 194.352 307.344 194.352 308.873 194.352 310.401 195.59 311.64 197.119 311.64Z"/><path d="M437.148 382.061C438.058 382.061 438.795 381.323 438.795 380.413 438.795 379.503 438.058 378.766 437.148 378.766 436.238 378.766 435.5 379.503 435.5 380.413 435.5 381.323 436.238 382.061 437.148 382.061Z"/><path d="M291.702 230.6C292.612 230.6 293.35 229.862 293.35 228.952 293.35 228.042 292.612 227.305 291.702 227.305 290.792 227.305 290.055 228.042 290.055 228.952 290.055 229.862 290.792 230.6 291.702 230.6Z"/><path d="M465.687 362.354C466.597 362.354 467.334 361.616 467.334 360.706 467.334 359.796 466.597 359.059 465.687 359.059 464.777 359.059 464.039 359.796 464.039 360.706 464.039 361.616 464.777 362.354 465.687 362.354Z"/><path d="M460.405 335.166C461.315 335.166 462.053 334.429 462.053 333.519 462.053 332.609 461.315 331.871 460.405 331.871 459.495 331.871 458.758 332.609 458.758 333.519 458.758 334.429 459.495 335.166 460.405 335.166Z"/><path d="M261.601 252.557C262.511 252.557 263.248 251.819 263.248 250.909 263.248 249.999 262.511 249.262 261.601 249.262 260.691 249.262 259.953 249.999 259.953 250.909 259.953 251.819 260.691 252.557 261.601 252.557Z"/><path d="M353.163 359.869C354.073 359.869 354.811 359.132 354.811 358.222 354.811 357.312 354.073 356.574 353.163 356.574 352.253 356.574 351.516 357.312 351.516 358.222 351.516 359.132 352.253 359.869 353.163 359.869Z" opacity=".2"/><path d="M310.991 338.096C311.901 338.096 312.639 337.358 312.639 336.448 312.639 335.538 311.901 334.801 310.991 334.801 310.081 334.801 309.344 335.538 309.344 336.448 309.344 337.358 310.081 338.096 310.991 338.096Z"/><path d="M273.038 303.561C273.948 303.561 274.686 302.823 274.686 301.913 274.686 301.003 273.948 300.266 273.038 300.266 272.128 300.266 271.391 301.003 271.391 301.913 271.391 302.823 272.128 303.561 273.038 303.561Z" opacity=".2"/><path d="M628.484 431.631C629.394 431.631 630.131 430.894 630.131 429.984 630.131 429.074 629.394 428.336 628.484 428.336 627.574 428.336 626.836 429.074 626.836 429.984 626.836 430.894 627.574 431.631 628.484 431.631Z"/><path d="M569.632 363.432C570.542 363.432 571.28 362.694 571.28 361.784 571.28 360.874 570.542 360.137 569.632 360.137 568.722 360.137 567.984 360.874 567.984 361.784 567.984 362.694 568.722 363.432 569.632 363.432Z" opacity=".2"/><path d="M405.413 356.162C406.323 356.162 407.061 355.425 407.061 354.515 407.061 353.605 406.323 352.867 405.413 352.867 404.503 352.867 403.766 353.605 403.766 354.515 403.766 355.425 404.503 356.162 405.413 356.162Z"/><path d="M402.601 296.33C403.511 296.33 404.248 295.593 404.248 294.683 404.248 293.773 403.511 293.035 402.601 293.035 401.691 293.035 400.953 293.773 400.953 294.683 400.953 295.593 401.691 296.33 402.601 296.33Z" opacity=".2"/><path d="M405.427 232.616C406.246 232.616 406.909 231.953 406.909 231.134 406.909 230.316 406.246 229.652 405.427 229.652 404.609 229.652 403.945 230.316 403.945 231.134 403.945 231.953 404.609 232.616 405.427 232.616Z"/><path d="M365.943 306.949C366.762 306.949 367.425 306.285 367.425 305.466 367.425 304.648 366.762 303.984 365.943 303.984 365.124 303.984 364.461 304.648 364.461 305.466 364.461 306.285 365.124 306.949 365.943 306.949Z"/><path d="M332.459 296.105C333.277 296.105 333.941 295.441 333.941 294.623 333.941 293.804 333.277 293.141 332.459 293.141 331.64 293.141 330.977 293.804 330.977 294.623 330.977 295.441 331.64 296.105 332.459 296.105Z" opacity=".6"/><path d="M486.724 357.573C487.543 357.573 488.206 356.91 488.206 356.091 488.206 355.273 487.543 354.609 486.724 354.609 485.906 354.609 485.242 355.273 485.242 356.091 485.242 356.91 485.906 357.573 486.724 357.573Z"/><path d="M331.209 242.796C332.027 242.796 332.691 242.133 332.691 241.314 332.691 240.496 332.027 239.832 331.209 239.832 330.39 239.832 329.727 240.496 329.727 241.314 329.727 242.133 330.39 242.796 331.209 242.796Z"/><path d="M339.631 270.851C340.449 270.851 341.113 270.187 341.113 269.369 341.113 268.55 340.449 267.887 339.631 267.887 338.812 267.887 338.148 268.55 338.148 269.369 338.148 270.187 338.812 270.851 339.631 270.851Z"/><path d="M419.031 235.614C419.519 235.614 419.914 235.218 419.914 234.731 419.914 234.243 419.519 233.848 419.031 233.848 418.544 233.848 418.148 234.243 418.148 234.731 418.148 235.218 418.544 235.614 419.031 235.614Z"/><path d="M313.367 255.11C313.855 255.11 314.25 254.714 314.25 254.227 314.25 253.739 313.855 253.344 313.367 253.344 312.88 253.344 312.484 253.739 312.484 254.227 312.484 254.714 312.88 255.11 313.367 255.11Z"/><path d="M353.414 287.824C353.902 287.824 354.297 287.429 354.297 286.942 354.297 286.454 353.902 286.059 353.414 286.059 352.927 286.059 352.531 286.454 352.531 286.942 352.531 287.429 352.927 287.824 353.414 287.824Z"/><path d="M556.787 426.898C557.605 426.898 558.269 426.234 558.269 425.416 558.269 424.597 557.605 423.934 556.787 423.934 555.968 423.934 555.305 424.597 555.305 425.416 555.305 426.234 555.968 426.898 556.787 426.898Z"/><path d="M485.802 427.757C486.621 427.757 487.284 427.094 487.284 426.275 487.284 425.457 486.621 424.793 485.802 424.793 484.984 424.793 484.32 425.457 484.32 426.275 484.32 427.094 484.984 427.757 485.802 427.757Z"/><path d="M478.164 411.051C478.652 411.051 479.047 410.656 479.047 410.168 479.047 409.68 478.652 409.285 478.164 409.285 477.677 409.285 477.281 409.68 477.281 410.168 477.281 410.656 477.677 411.051 478.164 411.051Z" opacity=".6"/><path d="M509.672 444.032C510.16 444.032 510.555 443.636 510.555 443.149 510.555 442.661 510.16 442.266 509.672 442.266 509.184 442.266 508.789 442.661 508.789 443.149 508.789 443.636 509.184 444.032 509.672 444.032Z" opacity=".6"/><path d="M386.641 267.688C387.128 267.688 387.524 267.292 387.524 266.805 387.524 266.317 387.128 265.922 386.641 265.922 386.153 265.922 385.758 266.317 385.758 266.805 385.758 267.292 386.153 267.688 386.641 267.688Z"/><path d="M457.922 307.481C458.41 307.481 458.805 307.085 458.805 306.598 458.805 306.11 458.41 305.715 457.922 305.715 457.434 305.715 457.039 306.11 457.039 306.598 457.039 307.085 457.434 307.481 457.922 307.481Z"/><path d="M435.305 295.801C435.792 295.801 436.188 295.406 436.188 294.918 436.188 294.43 435.792 294.035 435.305 294.035 434.817 294.035 434.422 294.43 434.422 294.918 434.422 295.406 434.817 295.801 435.305 295.801Z"/><path d="M414.961 277.293C415.449 277.293 415.844 276.898 415.844 276.41 415.844 275.923 415.449 275.527 414.961 275.527 414.473 275.527 414.078 275.923 414.078 276.41 414.078 276.898 414.473 277.293 414.961 277.293Z" opacity=".6"/><path d="M478.828 379.348C479.316 379.348 479.711 378.953 479.711 378.465 479.711 377.977 479.316 377.582 478.828 377.582 478.341 377.582 477.945 377.977 477.945 378.465 477.945 378.953 478.341 379.348 478.828 379.348Z"/><path d="M477.313 347.262C477.8 347.262 478.196 346.867 478.196 346.379 478.196 345.891 477.8 345.496 477.313 345.496 476.825 345.496 476.43 345.891 476.43 346.379 476.43 346.867 476.825 347.262 477.313 347.262Z"/><path d="M485.93 305.492C486.417 305.492 486.813 305.097 486.813 304.61 486.813 304.122 486.417 303.727 485.93 303.727 485.442 303.727 485.047 304.122 485.047 304.61 485.047 305.097 485.442 305.492 485.93 305.492Z"/><path d="M507.047 316.324C507.535 316.324 507.93 315.929 507.93 315.442 507.93 314.954 507.535 314.559 507.047 314.559 506.559 314.559 506.164 314.954 506.164 315.442 506.164 315.929 506.559 316.324 507.047 316.324Z" opacity=".6"/></g><g fill="#ffffff" opacity=".6"><path d="M380.908 139.862C382.436 139.862 383.675 138.623 383.675 137.095 383.675 135.567 382.436 134.328 380.908 134.328 379.379 134.328 378.141 135.567 378.141 137.095 378.141 138.623 379.379 139.862 380.908 139.862Z" opacity=".1"/><path d="M395.384 107.698C396.912 107.698 398.151 106.459 398.151 104.931 398.151 103.403 396.912 102.164 395.384 102.164 393.856 102.164 392.617 103.403 392.617 104.931 392.617 106.459 393.856 107.698 395.384 107.698Z"/><path d="M328.226 210.616C329.136 210.616 329.873 209.878 329.873 208.968 329.873 208.058 329.136 207.32 328.226 207.32 327.316 207.32 326.578 208.058 326.578 208.968 326.578 209.878 327.316 210.616 328.226 210.616Z"/><path d="M350.624 180.83C351.534 180.83 352.272 180.093 352.272 179.183 352.272 178.273 351.534 177.535 350.624 177.535 349.714 177.535 348.977 178.273 348.977 179.183 348.977 180.093 349.714 180.83 350.624 180.83Z"/><path d="M278.413 113.424C279.323 113.424 280.061 112.686 280.061 111.777 280.061 110.867 279.323 110.129 278.413 110.129 277.503 110.129 276.766 110.867 276.766 111.777 276.766 112.686 277.503 113.424 278.413 113.424Z"/><path d="M324.788 135.385C325.698 135.385 326.436 134.647 326.436 133.737 326.436 132.828 325.698 132.09 324.788 132.09 323.878 132.09 323.141 132.828 323.141 133.737 323.141 134.647 323.878 135.385 324.788 135.385Z" opacity=".2"/><path d="M270.091 159.523C270.91 159.523 271.574 158.859 271.574 158.041 271.574 157.222 270.91 156.559 270.091 156.559 269.273 156.559 268.609 157.222 268.609 158.041 268.609 158.859 269.273 159.523 270.091 159.523Z" opacity=".6"/><path d="M286.826 210.159C287.644 210.159 288.308 209.496 288.308 208.677 288.308 207.859 287.644 207.195 286.826 207.195 286.007 207.195 285.344 207.859 285.344 208.677 285.344 209.496 286.007 210.159 286.826 210.159Z"/><path d="M270.584 185.777C271.402 185.777 272.066 185.113 272.066 184.295 272.066 183.476 271.402 182.812 270.584 182.812 269.765 182.812 269.102 183.476 269.102 184.295 269.102 185.113 269.765 185.777 270.584 185.777Z"/><path d="M300.133 191.996C300.621 191.996 301.016 191.601 301.016 191.113 301.016 190.626 300.621 190.23 300.133 190.23 299.645 190.23 299.25 190.626 299.25 191.113 299.25 191.601 299.645 191.996 300.133 191.996Z"/><path d="M252.281 172.387C252.769 172.387 253.164 171.992 253.164 171.504 253.164 171.016 252.769 170.621 252.281 170.621 251.794 170.621 251.398 171.016 251.398 171.504 251.398 171.992 251.794 172.387 252.281 172.387Z"/></g><path d="M396.173 321.406 256.851 317.93 255.203 324.883 394.549 328.336 396.173 321.406Z" fill="url(#paint33_linear_588_37966)"/><path d="M362.597 395.147C364.931 393.8 364.204 388.171 360.973 382.576 357.743 376.98 353.232 373.537 350.898 374.884 348.564 376.232 349.291 381.86 352.521 387.456 355.752 393.051 360.263 396.495 362.597 395.147Z" fill="#ffffff"/><path d="M510.59 393.637C509.809 394.157 495.785 390.034 493.68 389.073 491.575 388.111 487.491 385.557 484.874 387.196 482.541 388.757 486.285 392.329 488.264 393.937 490.243 395.545 493.751 398.265 493.751 398.265L510.59 393.637Z" fill="url(#paint34_linear_588_37966)"/><path d="M542.116 419.039C542.116 419.039 525.356 423.95 515.825 421.664 506.294 419.37 484.638 414.278 482.825 416.619 481.012 418.96 465.852 430.801 463.409 430.856 460.973 430.911 457.07 426.765 459.656 423.911 462.25 421.049 456.361 424.203 463.716 416.351 470.992 408.215 463.204 406.67 476.589 401.767 489.975 396.863 492.064 391.069 503.874 392.732 515.691 394.396 535.131 393.655 535.131 393.655L542.108 419.055 542.116 419.039Z" fill="url(#paint35_linear_588_37966)"/><path d="M532.812 408.759C532.812 419.559 530.897 428.396 528.469 429.019V429.059C528.469 429.059 577.235 432.858 621.634 428.452 666.025 424.045 674.011 417.77 673.128 385.913 672.237 354.057 636.431 250.375 636.431 250.375 636.431 250.375 631.78 299.33 630.132 331.865 629.572 342.91 620.42 379.591 620.42 379.591L528.469 388.467V388.507C530.897 389.13 532.812 397.967 532.812 408.759V408.759Z" fill="url(#paint36_linear_588_37966)"/><path clip-rule="evenodd" d="M513.086 161.81 524.603 158.137 526.101 161.29 513.701 165.161 513.086 161.81Z" fill="#0e1b33" fill-rule="evenodd"/><path d="M394.547 328.336 471.275 439.838 474.91 434.106 464.401 419.089 396.171 321.406 394.547 328.336Z" fill="url(#paint37_linear_588_37966)"/><path d="M462.992 439.262 336.764 428.344 255.203 324.883 394.549 328.344 471.277 439.845 471.317 439.916 471.12 439.932 462.984 439.254 462.992 439.262Z" fill="url(#paint38_linear_588_37966)"/><path d="M466.609 422.241C466.609 422.241 479.546 410.787 481.375 410.329 483.858 409.707 491.576 411.212 491.576 411.212L490.961 404.969 480.453 405.458 474.311 407.917 466.609 422.233V422.241Z" fill="url(#paint39_radial_588_37966)" opacity=".9"/><path d="M464.406 419.089C464.406 419.089 475.238 406.302 477.075 405.845 479.558 405.222 487.276 406.728 487.276 406.728L486.661 400.484 476.152 400.973 470.011 403.433 464.414 419.081 464.406 419.089Z" fill="url(#paint40_radial_588_37966)" opacity=".9"/></g></g></svg>